<svg xmlns="http://www.w3.org/2000/svg" xmlns:xlink="http://www.w3.org/1999/xlink" xml:space="preserve" width="360" height="360"><defs><radialGradient xlink:href="#a" id="b" cx="2417.686" cy="351.564" r="180" fx="2417.686" fy="351.564" gradientTransform="matrix(.94444 0 0 .94444 396.63 -152.033)" gradientUnits="userSpaceOnUse"/><radialGradient id="d" cx="0" cy="0" r="1" gradientTransform="matrix(0 .50781 -.97656 0 9.93 6.516)" gradientUnits="userSpaceOnUse"><stop stop-color="#8BFDFF"/><stop offset="1" stop-color="#8DFFFF" stop-opacity="0"/></radialGradient><radialGradient id="e" cx="0" cy="0" r="1" gradientTransform="matrix(-1.90626 3.71874 -9.24396 -4.73852 10.438 1.719)" gradientUnits="userSpaceOnUse"><stop offset=".175" stop-color="#FFEF5B"/><stop offset=".814" stop-color="#FDA43A"/></radialGradient><radialGradient id="f" cx="0" cy="0" r="1" gradientTransform="rotate(106.757 3.676 5.204)scale(2.05937)" gradientUnits="userSpaceOnUse"><stop stop-color="#FECF4D"/><stop offset="1" stop-color="#FF9B32"/></radialGradient><radialGradient id="h" cx="0" cy="0" r="1" gradientTransform="matrix(0 .50781 -.97656 0 16.43 6.516)" gradientUnits="userSpaceOnUse"><stop stop-color="#8BFDFF"/><stop offset="1" stop-color="#8DFFFF" stop-opacity="0"/></radialGradient><radialGradient id="i" cx="0" cy="0" r="1" gradientTransform="matrix(-1.90626 3.71874 -9.24396 -4.73852 16.948 1.719)" gradientUnits="userSpaceOnUse"><stop offset=".175" stop-color="#FFEF5B"/><stop offset=".814" stop-color="#FDA43A"/></radialGradient><radialGradient id="j" cx="0" cy="0" r="1" gradientTransform="matrix(-.59374 1.9808 -1.9734 -.59152 16.219 3.21)" gradientUnits="userSpaceOnUse"><stop stop-color="#FECF4D"/><stop offset="1" stop-color="#FF9B32"/></radialGradient><radialGradient id="l" cx="0" cy="0" r="1" gradientTransform="matrix(0 .50781 -.97656 0 22.93 6.597)" gradientUnits="userSpaceOnUse"><stop stop-color="#8BFDFF"/><stop offset="1" stop-color="#8DFFFF" stop-opacity="0"/></radialGradient><radialGradient id="m" cx="0" cy="0" r="1" gradientTransform="matrix(-1.89988 3.71876 -9.22591 -4.71342 23.44 1.718)" gradientUnits="userSpaceOnUse"><stop offset=".175" stop-color="#FFEF5B"/><stop offset=".814" stop-color="#FDA43A"/></radialGradient><radialGradient id="n" cx="0" cy="0" r="1" gradientTransform="matrix(-.59374 1.9808 -1.9734 -.59152 22.718 3.185)" gradientUnits="userSpaceOnUse"><stop stop-color="#FECF4D"/><stop offset="1" stop-color="#FF9B32"/></radialGradient><radialGradient id="p" cx="0" cy="0" r="1" gradientTransform="matrix(0 11.4375 -6.67388 0 21.123 24.19)" gradientUnits="userSpaceOnUse"><stop offset=".006" stop-color="#FFBE8A"/><stop offset=".982" stop-color="#FFBB8A" stop-opacity="0"/></radialGradient><radialGradient id="u" cx="0" cy="0" r="1" gradientTransform="matrix(-17.18748 13.62507 -21.78108 -27.47596 26 11.563)" gradientUnits="userSpaceOnUse"><stop stop-color="#FFF2C2"/><stop offset=".226" stop-color="#FFF2C2" stop-opacity=".645"/><stop offset=".636" stop-color="#FFF1C1" stop-opacity="0"/></radialGradient><radialGradient id="v" cx="0" cy="0" r="1" gradientTransform="matrix(0 1.34375 -8.5625 0 24.188 11.063)" gradientUnits="userSpaceOnUse"><stop stop-color="#FFFCC8"/><stop offset="1" stop-color="#FFF9C7" stop-opacity="0"/></radialGradient><radialGradient id="z" cx="0" cy="0" r="1" gradientTransform="matrix(0 10.4375 -8.04767 0 16.005 18.313)" gradientUnits="userSpaceOnUse"><stop stop-color="#FDDAC6"/><stop offset="1" stop-color="#FBD7C3" stop-opacity="0"/></radialGradient><radialGradient id="A" cx="0" cy="0" r="1" gradientTransform="matrix(-.75 7.10156 -5.47554 -.57828 23.25 19.023)" gradientUnits="userSpaceOnUse"><stop stop-color="#FFF4D0"/><stop offset="1" stop-color="#FFF3D1" stop-opacity="0"/></radialGradient><radialGradient id="D" cx="0" cy="0" r="1" gradientTransform="matrix(-16.62539 12.38045 -19.47532 -26.1529 25.622 11.814)" gradientUnits="userSpaceOnUse"><stop stop-color="#FFF2C2"/><stop offset=".226" stop-color="#FFF2C2" stop-opacity=".645"/><stop offset=".636" stop-color="#FFF1C1" stop-opacity="0"/></radialGradient><radialGradient id="E" cx="0" cy="0" r="1" gradientTransform="matrix(0 1.22102 -8.28241 0 23.868 11.36)" gradientUnits="userSpaceOnUse"><stop stop-color="#FFFCC8"/><stop offset="1" stop-color="#FFF9C7" stop-opacity="0"/></radialGradient><radialGradient id="I" cx="0" cy="0" r="1" gradientTransform="scale(7.78442 9.48418)rotate(90 .078 1.97)" gradientUnits="userSpaceOnUse"><stop stop-color="#FDDAC6"/><stop offset="1" stop-color="#FBD7C3" stop-opacity="0"/></radialGradient><radialGradient id="J" cx="0" cy="0" r="1" gradientTransform="matrix(-.72547 6.45293 -5.28866 -.59457 22.961 18.594)" gradientUnits="userSpaceOnUse"><stop stop-color="#FFF4D0"/><stop offset="1" stop-color="#FFF3D1" stop-opacity="0"/></radialGradient><radialGradient id="N" cx="0" cy="0" r="1" gradientTransform="matrix(-.23367 .30907 -.3081 -.23294 21.356 15.457)" gradientUnits="userSpaceOnUse"><stop stop-color="#FF80E2"/><stop offset="1" stop-color="#FF80E2" stop-opacity="0"/></radialGradient><radialGradient id="Q" cx="0" cy="0" r="1" gradientTransform="matrix(-1.46561 1.375 -1.07563 -1.14651 11.61 14.825)" gradientUnits="userSpaceOnUse"><stop offset=".629" stop-color="#CF794B" stop-opacity="0"/><stop offset="1" stop-color="#CF794B"/></radialGradient><radialGradient id="S" cx="0" cy="0" r="1" gradientTransform="matrix(-1.46561 1.375 -1.07563 -1.14651 11.86 14.625)" gradientUnits="userSpaceOnUse"><stop offset=".629" stop-color="#CF794B" stop-opacity="0"/><stop offset="1" stop-color="#CF794B"/></radialGradient><radialGradient id="T" cx="0" cy="0" r="1" gradientTransform="rotate(45 -11.4 21.716)scale(.99438 .69606)" gradientUnits="userSpaceOnUse"><stop stop-color="#FFC054"/><stop offset="1" stop-color="#FFBD42" stop-opacity="0"/></radialGradient><radialGradient id="X" cx="0" cy="0" r="1" gradientTransform="matrix(-.28125 .26563 -.26449 -.28005 7.609 12.423)" gradientUnits="userSpaceOnUse"><stop stop-color="#FF80E2"/><stop offset="1" stop-color="#FF80E2" stop-opacity="0"/></radialGradient><radialGradient id="ab" cx="0" cy="0" r="1" gradientTransform="rotate(-15.255 61.066 -83.511)scale(1.06891)" gradientUnits="userSpaceOnUse"><stop offset=".303" stop-color="#D88043"/><stop offset="1" stop-color="#D98044" stop-opacity="0"/></radialGradient><linearGradient id="a"><stop offset="0" style="stop-color:#fff;stop-opacity:1"/><stop offset=".76" style="stop-color:#f7d9ae;stop-opacity:1"/><stop offset="1" style="stop-color:#ebbc87;stop-opacity:1"/></linearGradient><linearGradient id="c" x1="8.5" x2="10.5" y1="7.875" y2="7.875" gradientUnits="userSpaceOnUse"><stop stop-color="#3F92A6"/><stop offset=".137" stop-color="#52B4CF"/><stop offset=".563" stop-color="#73E5FF"/><stop offset=".816" stop-color="#71E2FC"/><stop offset="1" stop-color="#5BD0EF"/></linearGradient><linearGradient id="g" x1="15" x2="17" y1="7.875" y2="7.875" gradientUnits="userSpaceOnUse"><stop stop-color="#3F92A6"/><stop offset=".137" stop-color="#52B4CF"/><stop offset=".563" stop-color="#73E5FF"/><stop offset=".816" stop-color="#71E2FC"/><stop offset="1" stop-color="#5BD0EF"/></linearGradient><linearGradient id="k" x1="21.5" x2="23.5" y1="7.956" y2="7.956" gradientUnits="userSpaceOnUse"><stop stop-color="#3F92A6"/><stop offset=".137" stop-color="#52B4CF"/><stop offset=".563" stop-color="#73E5FF"/><stop offset=".816" stop-color="#71E2FC"/><stop offset="1" stop-color="#5BD0EF"/></linearGradient><linearGradient id="o" x1="2" x2="29.563" y1="22.498" y2="22.498" gradientUnits="userSpaceOnUse"><stop offset=".006" stop-color="#BB8960"/><stop offset=".129" stop-color="#DC9A6F"/><stop offset=".543" stop-color="#F6A377"/><stop offset=".698" stop-color="#F8A672"/><stop offset=".858" stop-color="#FBAA6C"/><stop offset=".939" stop-color="#E99952"/><stop offset=".982" stop-color="#CC894F"/></linearGradient><linearGradient id="q" x1="16" x2="16" y1="24.813" y2="30.25" gradientUnits="userSpaceOnUse"><stop offset=".739" stop-color="#F7A378" stop-opacity="0"/><stop offset=".862" stop-color="#E4828A"/><stop offset=".954" stop-color="#BA5CA3"/></linearGradient><linearGradient id="r" x1="2.563" x2="29.563" y1="22.985" y2="22.985" gradientUnits="userSpaceOnUse"><stop offset=".006" stop-color="#C7A88A"/><stop offset=".038" stop-color="#D3B08F"/><stop offset=".206" stop-color="#FFD0B4"/><stop offset=".511" stop-color="#FFE3CA"/><stop offset=".799" stop-color="#FFF7CF"/><stop offset=".933" stop-color="#FFE5B6"/><stop offset=".992" stop-color="#E9CAA0"/></linearGradient><linearGradient id="t" x1="3.698" x2="28.524" y1="18.813" y2="18.813" gradientUnits="userSpaceOnUse"><stop stop-color="#BF6245"/><stop offset=".388" stop-color="#BD6555"/><stop offset=".679" stop-color="#A54D3B"/><stop offset="1" stop-color="#8E4229"/></linearGradient><linearGradient id="w" x1="30.01" x2="27.438" y1="15.125" y2="15.125" gradientUnits="userSpaceOnUse"><stop stop-color="#EAD3A8"/><stop offset=".466" stop-color="#FEE6B8"/><stop offset=".903" stop-color="#FFF0C2" stop-opacity="0"/></linearGradient><linearGradient id="x" x1="16.005" x2="16.005" y1="9.016" y2="19.023" gradientUnits="userSpaceOnUse"><stop stop-color="#D8B38B"/><stop offset=".03" stop-color="#F9C588"/><stop offset=".16" stop-color="#FFE59F" stop-opacity="0"/></linearGradient><linearGradient id="y" x1="2" x2="8.063" y1="15.125" y2="15.125" gradientUnits="userSpaceOnUse"><stop stop-color="#A9967B"/><stop offset=".412" stop-color="#D2B79E"/><stop offset="1" stop-color="#DBBEA7" stop-opacity="0"/></linearGradient><linearGradient id="B" x1="19.688" x2="19.688" y1="18.563" y2="14.02" gradientUnits="userSpaceOnUse"><stop stop-color="#D697AC"/><stop offset=".358" stop-color="#D697AC" stop-opacity="0"/></linearGradient><linearGradient id="F" x1="29.5" x2="27.012" y1="15.051" y2="15.051" gradientUnits="userSpaceOnUse"><stop stop-color="#EAD3A8"/><stop offset=".466" stop-color="#FEE6B8"/><stop offset=".903" stop-color="#FFF0C2" stop-opacity="0"/></linearGradient><linearGradient id="G" x1="15.953" x2="15.953" y1="9.5" y2="18.594" gradientUnits="userSpaceOnUse"><stop stop-color="#D8B38B"/><stop offset=".03" stop-color="#F9C588"/><stop offset=".16" stop-color="#FFE59F" stop-opacity="0"/></linearGradient><linearGradient id="H" x1="2.406" x2="8.27" y1="15.051" y2="15.051" gradientUnits="userSpaceOnUse"><stop stop-color="#A9967B"/><stop offset=".412" stop-color="#D2B79E"/><stop offset="1" stop-color="#DBBEA7" stop-opacity="0"/></linearGradient><linearGradient id="L" x1="20.96" x2="20.313" y1="14.932" y2="15.6" gradientUnits="userSpaceOnUse"><stop stop-color="#FF79C8"/><stop offset=".384" stop-color="#FF79D8"/><stop offset="1" stop-color="#C557AB"/></linearGradient><linearGradient id="M" x1="21.109" x2="20.461" y1="14.849" y2="15.517" gradientUnits="userSpaceOnUse"><stop stop-color="#FF79C8"/><stop offset=".384" stop-color="#FF79D8"/><stop offset="1" stop-color="#C557AB"/></linearGradient><linearGradient id="P" x1="10.645" x2="11.348" y1="14.986" y2="15.659" gradientUnits="userSpaceOnUse"><stop stop-color="#D29440"/><stop offset=".31" stop-color="#E29B3E"/><stop offset=".635" stop-color="#EE9744"/><stop offset="1" stop-color="#F19542"/></linearGradient><linearGradient id="R" x1="10.894" x2="11.597" y1="14.786" y2="15.459" gradientUnits="userSpaceOnUse"><stop stop-color="#D29440"/><stop offset=".31" stop-color="#E29B3E"/><stop offset=".635" stop-color="#EE9744"/><stop offset="1" stop-color="#F19542"/></linearGradient><linearGradient id="V" x1="7.175" x2="6.425" y1="11.903" y2="12.45" gradientUnits="userSpaceOnUse"><stop stop-color="#FF79C8"/><stop offset=".384" stop-color="#FF79D8"/><stop offset="1" stop-color="#C557AB"/></linearGradient><linearGradient id="W" x1="7.469" x2="6.719" y1="11.781" y2="12.328" gradientUnits="userSpaceOnUse"><stop stop-color="#FF79C8"/><stop offset=".384" stop-color="#FF79D8"/><stop offset="1" stop-color="#C557AB"/></linearGradient><linearGradient id="Z" x1="24.401" x2="25.198" y1="11.861" y2="12.423" gradientUnits="userSpaceOnUse"><stop stop-color="#FBA947"/><stop offset=".31" stop-color="#FFB841"/><stop offset=".635" stop-color="#FFC656"/><stop offset="1" stop-color="#F3A740"/></linearGradient><linearGradient id="aa" x1="24.516" x2="25.313" y1="11.719" y2="12.281" gradientUnits="userSpaceOnUse"><stop stop-color="#FBA947"/><stop offset=".31" stop-color="#FFB841"/><stop offset=".635" stop-color="#FFC656"/><stop offset="1" stop-color="#F3A740"/></linearGradient><linearGradient id="ad" x1="16.406" x2="15.734" y1="11.672" y2="12.359" gradientUnits="userSpaceOnUse"><stop stop-color="#4FC3FF"/><stop offset=".371" stop-color="#45B2FF"/><stop offset="1" stop-color="#417EDD"/></linearGradient><filter id="s" width="26.366" height="5.413" x="2.75" y="14.091" color-interpolation-filters="sRGB" filterUnits="userSpaceOnUse"><feFlood flood-opacity="0" result="BackgroundImageFix"/><feBlend in="SourceGraphic" in2="BackgroundImageFix" result="shape"/><feGaussianBlur result="effect1_foregroundBlur_18_32701" stdDeviation=".125"/></filter><filter id="C" width="29.359" height="4.885" x="1.406" y="15.006" color-interpolation-filters="sRGB" filterUnits="userSpaceOnUse"><feFlood flood-opacity="0" result="BackgroundImageFix"/><feBlend in="SourceGraphic" in2="BackgroundImageFix" result="shape"/><feGaussianBlur result="effect1_foregroundBlur_18_32701" stdDeviation=".5"/></filter><filter id="K" width="2.25" height="2.25" x="19.458" y="14.091" color-interpolation-filters="sRGB" filterUnits="userSpaceOnUse"><feFlood flood-opacity="0" result="BackgroundImageFix"/><feBlend in="SourceGraphic" in2="BackgroundImageFix" result="shape"/><feGaussianBlur result="effect1_foregroundBlur_18_32701" stdDeviation=".125"/></filter><filter id="O" width="2.242" height="2.25" x="9.894" y="14.2" color-interpolation-filters="sRGB" filterUnits="userSpaceOnUse"><feFlood flood-opacity="0" result="BackgroundImageFix"/><feBlend in="SourceGraphic" in2="BackgroundImageFix" result="shape"/><feGaussianBlur result="effect1_foregroundBlur_18_32701" stdDeviation=".125"/></filter><filter id="U" width="2.108" height="2.363" x="5.703" y="10.938" color-interpolation-filters="sRGB" filterUnits="userSpaceOnUse"><feFlood flood-opacity="0" result="BackgroundImageFix"/><feBlend in="SourceGraphic" in2="BackgroundImageFix" result="shape"/><feGaussianBlur result="effect1_foregroundBlur_18_32701" stdDeviation=".125"/></filter><filter id="Y" width="2.129" height="2.353" x="23.756" y="10.963" color-interpolation-filters="sRGB" filterUnits="userSpaceOnUse"><feFlood flood-opacity="0" result="BackgroundImageFix"/><feBlend in="SourceGraphic" in2="BackgroundImageFix" result="shape"/><feGaussianBlur result="effect1_foregroundBlur_18_32701" stdDeviation=".125"/></filter><filter id="ac" width="2.25" height="2.25" x="14.75" y="10.994" color-interpolation-filters="sRGB" filterUnits="userSpaceOnUse"><feFlood flood-opacity="0" result="BackgroundImageFix"/><feBlend in="SourceGraphic" in2="BackgroundImageFix" result="shape"/><feGaussianBlur result="effect1_foregroundBlur_18_32701" stdDeviation=".125"/></filter></defs><g transform="translate(-2500)"><circle cx="2680" cy="180" r="170" style="opacity:1;fill:url(#b);stroke:#fff;stroke-width:20;stroke-linecap:round;stroke-linejoin:round;stroke-dasharray:none;stroke-opacity:1;paint-order:stroke markers fill"/><g fill="none"><path fill="url(#c)" d="M10.5 10.92h-2V6.88c0-.29.12-.57.32-.77l.68-.67.68.67c.2.2.32.48.32.77z" style="fill:url(#c)" transform="translate(2570.422 66.056)scale(6.81222)"/><path fill="url(#d)" d="M10.5 10.92h-2V6.88c0-.29.12-.57.32-.77l.68-.67.68.67c.2.2.32.48.32.77z" style="fill:url(#d)" transform="translate(2570.422 66.056)scale(6.81222)"/><path fill="url(#e)" d="m10.78 3.774-.9-1.51a.45.45 0 0 0-.77 0l-.89 1.51c-.17.28-.25.61-.21.96.08.69.63 1.24 1.32 1.31.9.1 1.67-.6 1.67-1.49a1.7 1.7 0 0 0-.22-.78" style="fill:url(#e)" transform="translate(2570.422 66.056)scale(6.81222)"/><path fill="url(#f)" d="m10.11 3.964-.61-.78-.61.78a.849.849 0 1 0 1.46.59c0-.23-.09-.43-.24-.59" style="fill:url(#f)" transform="translate(2570.422 66.056)scale(6.81222)"/><path fill="url(#g)" d="M17 10.92h-2V6.88c0-.29.12-.57.32-.77l.68-.67.68.67c.2.2.32.48.32.77Z" style="fill:url(#g)" transform="translate(2570.422 66.056)scale(6.81222)"/><path fill="url(#h)" d="M17 10.92h-2V6.88c0-.29.12-.57.32-.77l.68-.67.68.67c.2.2.32.48.32.77Z" style="fill:url(#h)" transform="translate(2570.422 66.056)scale(6.81222)"/><path fill="url(#i)" d="m17.28 3.774-.89-1.51a.45.45 0 0 0-.77 0l-.89 1.51c-.17.27-.25.61-.21.96.08.68.63 1.23 1.32 1.31.9.1 1.67-.6 1.67-1.49-.01-.28-.09-.55-.23-.78" style="fill:url(#i)" transform="translate(2570.422 66.056)scale(6.81222)"/><path fill="url(#j)" d="M16.61 3.99 16 3.21l-.61.79a.85.85 0 1 0 1.46.59c0-.24-.09-.44-.24-.6" style="fill:url(#j)" transform="translate(2570.422 66.056)scale(6.81222)"/><path fill="url(#k)" d="M23.5 11h-2V6.96c0-.29.12-.57.32-.77l.68-.67.68.67c.21.2.32.48.32.77z" style="fill:url(#k)" transform="translate(2570.422 66.056)scale(6.81222)"/><path fill="url(#l)" d="M23.5 11h-2V6.96c0-.29.12-.57.32-.77l.68-.67.68.67c.21.2.32.48.32.77z" style="fill:url(#l)" transform="translate(2570.422 66.056)scale(6.81222)"/><path fill="url(#m)" d="m23.78 3.774-.89-1.51a.45.45 0 0 0-.77 0l-.89 1.51c-.17.27-.25.61-.21.96.08.69.63 1.24 1.31 1.31.91.1 1.67-.6 1.67-1.49 0-.28-.08-.55-.22-.78" style="fill:url(#m)" transform="translate(2570.422 66.056)scale(6.81222)"/><path fill="url(#n)" d="m23.11 3.964-.61-.78-.61.79a.85.85 0 1 0 1.46.59c0-.24-.09-.44-.24-.6" style="fill:url(#n)" transform="translate(2570.422 66.056)scale(6.81222)"/><path fill="url(#o)" d="M26.984 29.998H4.922C3.656 29.998 3 29.312 3 28.03V14.998h26V28.03c0 1.25-.562 1.967-2.016 1.967" style="fill:url(#o)" transform="translate(2570.422 66.056)scale(6.81222)"/><path fill="url(#p)" d="M26.984 29.998H4.922C3.656 29.998 3 29.312 3 28.03V14.998h26V28.03c0 1.25-.562 1.967-2.016 1.967" style="fill:url(#p)" transform="translate(2570.422 66.056)scale(6.81222)"/><path fill="url(#q)" d="M26.984 29.998H4.922C3.656 29.998 3 29.312 3 28.03V14.998h26V28.03c0 1.25-.562 1.967-2.016 1.967" style="fill:url(#q)" transform="translate(2570.422 66.056)scale(6.81222)"/><path fill="url(#r)" d="M29 21.986H3v2h26z" style="fill:url(#r)" transform="translate(2570.422 66.056)scale(6.81222)"/><g filter="url(#s)" transform="translate(2570.422 66.056)scale(6.81222)"><path fill="url(#t)" d="M3.729 19.082c.702 0 1.038-.252 1.51-.652.35-.297.836-.741 1.228-.43 1.443 1.13 3.655 1.56 5.099.43.548-.43.644-.526 1.17-.114.724.567 1.727.94 2.597.938 1.579 0 2.273-.383 2.992-.946.515-.403.804-.401 1.317 0 1.549 1.213 3.805.952 4.993.008.75-.596 1.968.715 2.8.715.576 0 1.431-.152 1.431-1.236-5.715-4.744-20.62-4.328-25.448-.42-.752.609-.391 1.707.311 1.707" style="fill:url(#t)"/></g><path fill="#edc8ae" d="M2584.046 149.825v35.833c0 6.58 6.922 8.713 10.628 8.713 4.809 0 7.05-2.44 10.286-5.164 2.398-2.023 8.127-2.125 10.804 0a27.32 27.32 0 0 0 33.584 0c3.754-2.93 9.715-2.807 13.311 0 4.96 3.862 10.914 6.458 16.868 6.437 5.899-.013 11.798-2.609 16.717-6.437 3.528-2.752 9.578-2.793 13.08-.055 10.606 8.264 25.722 6.486 33.856.055 5.123-4.06 14.367 5.218 20.062 5.218 3.937 0 11.615-1.383 11.615-8.76v-35.84c0-18.631-13.27-22.35-27.317-22.35h-133.588c-21.595 0-29.906 7.554-29.906 22.344"/><path fill="url(#u)" d="M2 12.297v5.26c0 .966 1.016 1.279 1.56 1.279.706 0 1.035-.358 1.51-.758.352-.297 1.193-.312 1.586 0a4.01 4.01 0 0 0 4.93 0c.551-.43 1.426-.412 1.954 0 .728.567 1.602.948 2.476.945.866-.002 1.732-.383 2.454-.945.518-.404 1.406-.41 1.92-.008 1.557 1.213 3.776.952 4.97.008.752-.596 2.109.766 2.945.766.578 0 1.705-.203 1.705-1.286v-5.261c0-2.735-1.948-3.281-4.01-3.281H6.39c-3.17 0-4.39 1.109-4.39 3.28" style="fill:url(#u)" transform="translate(2570.422 66.056)scale(6.81222)"/><path fill="url(#v)" d="M2 12.297v5.26c0 .966 1.016 1.279 1.56 1.279.706 0 1.035-.358 1.51-.758.352-.297 1.193-.312 1.586 0a4.01 4.01 0 0 0 4.93 0c.551-.43 1.426-.412 1.954 0 .728.567 1.602.948 2.476.945.866-.002 1.732-.383 2.454-.945.518-.404 1.406-.41 1.92-.008 1.557 1.213 3.776.952 4.97.008.752-.596 2.109.766 2.945.766.578 0 1.705-.203 1.705-1.286v-5.261c0-2.735-1.948-3.281-4.01-3.281H6.39c-3.17 0-4.39 1.109-4.39 3.28" style="fill:url(#v)" transform="translate(2570.422 66.056)scale(6.81222)"/><path fill="url(#w)" d="M2 12.297v5.26c0 .966 1.016 1.279 1.56 1.279.706 0 1.035-.358 1.51-.758.352-.297 1.193-.312 1.586 0a4.01 4.01 0 0 0 4.93 0c.551-.43 1.426-.412 1.954 0 .728.567 1.602.948 2.476.945.866-.002 1.732-.383 2.454-.945.518-.404 1.406-.41 1.92-.008 1.557 1.213 3.776.952 4.97.008.752-.596 2.109.766 2.945.766.578 0 1.705-.203 1.705-1.286v-5.261c0-2.735-1.948-3.281-4.01-3.281H6.39c-3.17 0-4.39 1.109-4.39 3.28" style="fill:url(#w)" transform="translate(2570.422 66.056)scale(6.81222)"/><path fill="url(#x)" d="M2 12.297v5.26c0 .966 1.016 1.279 1.56 1.279.706 0 1.035-.358 1.51-.758.352-.297 1.193-.312 1.586 0a4.01 4.01 0 0 0 4.93 0c.551-.43 1.426-.412 1.954 0 .728.567 1.602.948 2.476.945.866-.002 1.732-.383 2.454-.945.518-.404 1.406-.41 1.92-.008 1.557 1.213 3.776.952 4.97.008.752-.596 2.109.766 2.945.766.578 0 1.705-.203 1.705-1.286v-5.261c0-2.735-1.948-3.281-4.01-3.281H6.39c-3.17 0-4.39 1.109-4.39 3.28" style="fill:url(#x)" transform="translate(2570.422 66.056)scale(6.81222)"/><path fill="url(#y)" d="M2 12.297v5.26c0 .966 1.016 1.279 1.56 1.279.706 0 1.035-.358 1.51-.758.352-.297 1.193-.312 1.586 0a4.01 4.01 0 0 0 4.93 0c.551-.43 1.426-.412 1.954 0 .728.567 1.602.948 2.476.945.866-.002 1.732-.383 2.454-.945.518-.404 1.406-.41 1.92-.008 1.557 1.213 3.776.952 4.97.008.752-.596 2.109.766 2.945.766.578 0 1.705-.203 1.705-1.286v-5.261c0-2.735-1.948-3.281-4.01-3.281H6.39c-3.17 0-4.39 1.109-4.39 3.28" style="fill:url(#y)" transform="translate(2570.422 66.056)scale(6.81222)"/><path fill="url(#z)" d="M2 12.297v5.26c0 .966 1.016 1.279 1.56 1.279.706 0 1.035-.358 1.51-.758.352-.297 1.193-.312 1.586 0a4.01 4.01 0 0 0 4.93 0c.551-.43 1.426-.412 1.954 0 .728.567 1.602.948 2.476.945.866-.002 1.732-.383 2.454-.945.518-.404 1.406-.41 1.92-.008 1.557 1.213 3.776.952 4.97.008.752-.596 2.109.766 2.945.766.578 0 1.705-.203 1.705-1.286v-5.261c0-2.735-1.948-3.281-4.01-3.281H6.39c-3.17 0-4.39 1.109-4.39 3.28" style="fill:url(#z)" transform="translate(2570.422 66.056)scale(6.81222)"/><path fill="url(#A)" d="M2 12.297v5.26c0 .966 1.016 1.279 1.56 1.279.706 0 1.035-.358 1.51-.758.352-.297 1.193-.312 1.586 0a4.01 4.01 0 0 0 4.93 0c.551-.43 1.426-.412 1.954 0 .728.567 1.602.948 2.476.945.866-.002 1.732-.383 2.454-.945.518-.404 1.406-.41 1.92-.008 1.557 1.213 3.776.952 4.97.008.752-.596 2.109.766 2.945.766.578 0 1.705-.203 1.705-1.286v-5.261c0-2.735-1.948-3.281-4.01-3.281H6.39c-3.17 0-4.39 1.109-4.39 3.28" style="fill:url(#A)" transform="translate(2570.422 66.056)scale(6.81222)"/><path fill="url(#B)" d="M2 12.297v5.26c0 .966 1.016 1.279 1.56 1.279.706 0 1.035-.358 1.51-.758.352-.297 1.193-.312 1.586 0a4.01 4.01 0 0 0 4.93 0c.551-.43 1.426-.412 1.954 0 .728.567 1.602.948 2.476.945.866-.002 1.732-.383 2.454-.945.518-.404 1.406-.41 1.92-.008 1.557 1.213 3.776.952 4.97.008.752-.596 2.109.766 2.945.766.578 0 1.705-.203 1.705-1.286v-5.261c0-2.735-1.948-3.281-4.01-3.281H6.39c-3.17 0-4.39 1.109-4.39 3.28" style="fill:url(#B)" transform="translate(2570.422 66.056)scale(6.81222)"/><g filter="url(#C)" transform="translate(2570.422 66.056)scale(6.81222)"><path fill="#edc8ae" d="M2.406 17.262c0 .877.661 1.161 1.188 1.161.682 0 .946-.465 1.406-.83.34-.268 1.448-.001 1.828.282.632.463 1.461.86 2.219.906.923.056 2.073-.623 2.844-1.187.532-.39 1.167-.374 1.678 0 .704.515 1.555 1.299 2.4 1.297.838-.002 1.973-.645 2.672-1.157.5-.366 1.533-.371 2.03-.006 1.506 1.102 3.519 1.052 4.673.194 1.224-.91 2.472.594 3.281.594.56 0 1.14-.016 1.14-1v-.766c-.374-.987-27.359-1.156-27.359.512"/><path fill="url(#D)" d="M2.406 17.262c0 .877.661 1.161 1.188 1.161.682 0 .946-.465 1.406-.83.34-.268 1.448-.001 1.828.282.632.463 1.461.86 2.219.906.923.056 2.073-.623 2.844-1.187.532-.39 1.167-.374 1.678 0 .704.515 1.555 1.299 2.4 1.297.838-.002 1.973-.645 2.672-1.157.5-.366 1.533-.371 2.03-.006 1.506 1.102 3.519 1.052 4.673.194 1.224-.91 2.472.594 3.281.594.56 0 1.14-.016 1.14-1v-.766c-.374-.987-27.359-1.156-27.359.512" style="fill:url(#D)"/><path fill="url(#E)" d="M2.406 17.262c0 .877.661 1.161 1.188 1.161.682 0 .946-.465 1.406-.83.34-.268 1.448-.001 1.828.282.632.463 1.461.86 2.219.906.923.056 2.073-.623 2.844-1.187.532-.39 1.167-.374 1.678 0 .704.515 1.555 1.299 2.4 1.297.838-.002 1.973-.645 2.672-1.157.5-.366 1.533-.371 2.03-.006 1.506 1.102 3.519 1.052 4.673.194 1.224-.91 2.472.594 3.281.594.56 0 1.14-.016 1.14-1v-.766c-.374-.987-27.359-1.156-27.359.512" style="fill:url(#E)"/><path fill="url(#F)" d="M2.406 17.262c0 .877.661 1.161 1.188 1.161.682 0 .946-.465 1.406-.83.34-.268 1.448-.001 1.828.282.632.463 1.461.86 2.219.906.923.056 2.073-.623 2.844-1.187.532-.39 1.167-.374 1.678 0 .704.515 1.555 1.299 2.4 1.297.838-.002 1.973-.645 2.672-1.157.5-.366 1.533-.371 2.03-.006 1.506 1.102 3.519 1.052 4.673.194 1.224-.91 2.472.594 3.281.594.56 0 1.14-.016 1.14-1v-.766c-.374-.987-27.359-1.156-27.359.512" style="fill:url(#F)"/><path fill="url(#G)" d="M2.406 17.262c0 .877.661 1.161 1.188 1.161.682 0 .946-.465 1.406-.83.34-.268 1.448-.001 1.828.282.632.463 1.461.86 2.219.906.923.056 2.073-.623 2.844-1.187.532-.39 1.167-.374 1.678 0 .704.515 1.555 1.299 2.4 1.297.838-.002 1.973-.645 2.672-1.157.5-.366 1.533-.371 2.03-.006 1.506 1.102 3.519 1.052 4.673.194 1.224-.91 2.472.594 3.281.594.56 0 1.14-.016 1.14-1v-.766c-.374-.987-27.359-1.156-27.359.512" style="fill:url(#G)"/><path fill="url(#H)" d="M2.406 17.262c0 .877.661 1.161 1.188 1.161.682 0 .946-.465 1.406-.83.34-.268 1.448-.001 1.828.282.632.463 1.461.86 2.219.906.923.056 2.073-.623 2.844-1.187.532-.39 1.167-.374 1.678 0 .704.515 1.555 1.299 2.4 1.297.838-.002 1.973-.645 2.672-1.157.5-.366 1.533-.371 2.03-.006 1.506 1.102 3.519 1.052 4.673.194 1.224-.91 2.472.594 3.281.594.56 0 1.14-.016 1.14-1v-.766c-.374-.987-27.359-1.156-27.359.512" style="fill:url(#H)"/><path fill="url(#I)" d="M2.406 17.262c0 .877.661 1.161 1.188 1.161.682 0 .946-.465 1.406-.83.34-.268 1.448-.001 1.828.282.632.463 1.461.86 2.219.906.923.056 2.073-.623 2.844-1.187.532-.39 1.167-.374 1.678 0 .704.515 1.555 1.299 2.4 1.297.838-.002 1.973-.645 2.672-1.157.5-.366 1.533-.371 2.03-.006 1.506 1.102 3.519 1.052 4.673.194 1.224-.91 2.472.594 3.281.594.56 0 1.14-.016 1.14-1v-.766c-.374-.987-27.359-1.156-27.359.512" style="fill:url(#I)"/><path fill="url(#J)" d="M2.406 17.262c0 .877.661 1.161 1.188 1.161.682 0 .946-.465 1.406-.83.34-.268 1.448-.001 1.828.282.632.463 1.461.86 2.219.906.923.056 2.073-.623 2.844-1.187.532-.39 1.167-.374 1.678 0 .704.515 1.555 1.299 2.4 1.297.838-.002 1.973-.645 2.672-1.157.5-.366 1.533-.371 2.03-.006 1.506 1.102 3.519 1.052 4.673.194 1.224-.91 2.472.594 3.281.594.56 0 1.14-.016 1.14-1v-.766c-.374-.987-27.359-1.156-27.359.512" style="fill:url(#J)"/></g><g filter="url(#K)" transform="translate(2570.422 66.056)scale(6.81222)"><path fill="url(#L)" d="M21.308 15.94c-.2.2-.51.2-.71 0l-.74-.74c-.2-.2-.2-.51 0-.71s.51-.2.71 0l.74.74c.2.2.2.52 0 .71" style="fill:url(#L)"/><path fill="#e6a9af" d="M21.308 15.94c-.2.2-.51.2-.71 0l-.74-.74c-.2-.2-.2-.51 0-.71s.51-.2.71 0l.74.74c.2.2.2.52 0 .71"/></g><path fill="url(#M)" d="M21.456 15.857c-.2.2-.51.2-.71 0l-.74-.74c-.2-.2-.2-.51 0-.71s.51-.2.71 0l.74.74c.2.2.2.52 0 .71" style="fill:url(#M)" transform="translate(2570.422 66.056)scale(6.81222)"/><path fill="url(#N)" d="M21.456 15.857c-.2.2-.51.2-.71 0l-.74-.74c-.2-.2-.2-.51 0-.71s.51-.2.71 0l.74.74c.2.2.2.52 0 .71" style="fill:url(#N)" transform="translate(2570.422 66.056)scale(6.81222)"/><g filter="url(#O)" transform="translate(2570.422 66.056)scale(6.81222)"><path fill="url(#P)" d="M11.744 14.6c-.2-.2-.51-.2-.71 0l-.74.74c-.2.2-.2.51 0 .71s.51.2.71 0l.74-.74c.19-.2.19-.51 0-.71" style="fill:url(#P)"/><path fill="url(#Q)" d="M11.744 14.6c-.2-.2-.51-.2-.71 0l-.74.74c-.2.2-.2.51 0 .71s.51.2.71 0l.74-.74c.19-.2.19-.51 0-.71" style="fill:url(#Q)"/><path fill="#cca39a" d="M11.744 14.6c-.2-.2-.51-.2-.71 0l-.74.74c-.2.2-.2.51 0 .71s.51.2.71 0l.74-.74c.19-.2.19-.51 0-.71"/></g><path fill="url(#R)" d="M11.994 14.4c-.2-.2-.51-.2-.71 0l-.74.74c-.2.2-.2.51 0 .71s.51.2.71 0l.74-.74c.19-.2.19-.51 0-.71" style="fill:url(#R)" transform="translate(2570.422 66.056)scale(6.81222)"/><path fill="url(#S)" d="M11.994 14.4c-.2-.2-.51-.2-.71 0l-.74.74c-.2.2-.2.51 0 .71s.51.2.71 0l.74-.74c.19-.2.19-.51 0-.71" style="fill:url(#S)" transform="translate(2570.422 66.056)scale(6.81222)"/><path fill="url(#T)" d="M11.994 14.4c-.2-.2-.51-.2-.71 0l-.74.74c-.2.2-.2.51 0 .71s.51.2.71 0l.74-.74c.19-.2.19-.51 0-.71" style="fill:url(#T)" transform="translate(2570.422 66.056)scale(6.81222)"/><g filter="url(#U)" transform="translate(2570.422 66.056)scale(6.81222)"><path fill="url(#V)" d="M7.353 12.956a.495.495 0 0 1-.7-.119l-.605-.854a.495.495 0 0 1 .12-.7.495.495 0 0 1 .7.12l.605.853a.514.514 0 0 1-.12.7" style="fill:url(#V)"/><path fill="#cea691" d="M7.353 12.956a.495.495 0 0 1-.7-.119l-.605-.854a.495.495 0 0 1 .12-.7.495.495 0 0 1 .7.12l.605.853a.514.514 0 0 1-.12.7"/></g><path fill="url(#W)" d="M7.647 12.835a.495.495 0 0 1-.7-.12l-.605-.853a.495.495 0 0 1 .12-.7.495.495 0 0 1 .7.119l.604.854a.513.513 0 0 1-.119.7" style="fill:url(#W)" transform="translate(2570.422 66.056)scale(6.81222)"/><path fill="url(#X)" d="M7.647 12.835a.495.495 0 0 1-.7-.12l-.605-.853a.495.495 0 0 1 .12-.7.495.495 0 0 1 .7.119l.604.854a.513.513 0 0 1-.119.7" style="fill:url(#X)" transform="translate(2570.422 66.056)scale(6.81222)"/><g filter="url(#Y)" transform="translate(2570.422 66.056)scale(6.81222)"><path fill="url(#Z)" d="M25.428 11.313a.495.495 0 0 0-.702.107l-.62.843a.495.495 0 0 0 .107.702.495.495 0 0 0 .702-.107l.62-.843a.495.495 0 0 0-.107-.702" style="fill:url(#Z)"/><path fill="#f8ccad" d="M25.428 11.313a.495.495 0 0 0-.702.107l-.62.843a.495.495 0 0 0 .107.702.495.495 0 0 0 .702-.107l.62-.843a.495.495 0 0 0-.107-.702"/></g><path fill="url(#aa)" d="M25.543 11.172a.495.495 0 0 0-.702.106l-.62.843a.495.495 0 0 0 .106.702.495.495 0 0 0 .702-.107l.62-.842a.495.495 0 0 0-.106-.702" style="fill:url(#aa)" transform="translate(2570.422 66.056)scale(6.81222)"/><path fill="url(#ab)" d="M25.543 11.172a.495.495 0 0 0-.702.106l-.62.843a.495.495 0 0 0 .106.702.495.495 0 0 0 .702-.107l.62-.842a.495.495 0 0 0-.106-.702" style="fill:url(#ab)" transform="translate(2570.422 66.056)scale(6.81222)"/><g filter="url(#ac)" transform="translate(2570.422 66.056)scale(6.81222)"><path fill="#ad8994" d="M15.15 11.394c-.2.2-.2.51 0 .71l.74.74c.2.2.51.2.71 0s.2-.51 0-.71l-.74-.74c-.2-.2-.52-.2-.71 0"/></g><path fill="url(#ad)" d="M15.28 11.272c-.2.2-.2.51 0 .71l.74.74c.2.2.51.2.71 0s.2-.51 0-.71l-.74-.74c-.2-.2-.52-.2-.71 0" style="fill:url(#ad)" transform="translate(2570.422 66.056)scale(6.81222)"/></g></g></svg>